# xmcd
#
# Track frame offsets:
#	150
#	14995
#	27378
#	40670
#	58790
#	75765
#	87635
#	104703
#	118740
#	132415
#
# Disc length: 2053 seconds
#
# Revision: 5
# Processed by: cddbd v1.5.2PL0 Copyright (c) Steve Scherf et al.
# Submitted via: EasyCDDAExtractor 10.0.3.1
#
DISCID=8908030a
DTITLE=Faith Hill - Take me as I am
DYEAR=1993
DGENRE=Country
TTITLE0=Take me as I am
TTITLE1=Wild one
TTITLE2=Just about now
TTITLE3=Piece of my heart
TTITLE4=I've got this friend (with Larry Stewart)
TTITLE5=Life's too short to love like that
TTITLE6=But I will
TTITLE7=Just around the eyes
TTITLE8=Go the distance
TTITLE9=I would be stronger than that
EXTD=\n
EXTT0=
EXTT1=
EXTT2=
EXTT3=
EXTT4=
EXTT5=
EXTT6=
EXTT7=
EXTT8=
EXTT9=
PLAYORDER=
